USFL
nRows=204
nColumns=2
inDegrees=yes
endheader
time	tib_ant_r	
2.99395	 76.272867	
3.02722	 76.277200	
3.06048	 76.279888	
3.09375	 76.282148	
3.12702	 76.278543	
3.16028	 76.280745	
3.19355	 76.284783	
3.22681	 76.284438	
3.26008	 76.278795	
3.29335	 76.251077	
3.32661	 76.240031	
3.35988	 76.191014	
3.39315	 76.171138	
3.42641	 76.175024	
3.45968	 76.188049	
3.49294	 76.189883	
3.52621	 76.195980	
3.55948	 76.220094	
3.59274	 76.257847	
3.62601	 76.258640	
3.65927	 76.258853	
3.69254	 76.260447	
3.72581	 76.276118	
3.75907	 76.280434	
3.79234	 76.275408	
3.8256	 76.302087	
3.85887	 76.309403	
3.89214	 76.318522	
3.9254	 76.320131	
3.95867	 76.318913	
3.99194	 76.307197	
4.0252	 76.318326	
4.05847	 76.317434	
4.09173	 76.366283	
4.125	 76.375827	
4.15827	 76.358877	
4.19153	 76.362678	
4.2248	 76.367216	
4.25806	 76.303562	
4.29133	 76.279096	
4.3246	 76.203945	
4.35786	 75.876682	
4.39113	 75.770064	
4.4244	 75.612518	
4.45766	 75.228020	
4.49093	 75.013266	
4.52419	 74.706527	
4.55746	 74.457059	
4.59073	 74.418967	
4.62399	 74.099947	
4.65726	 73.733948	
4.69052	 73.210687	
4.72379	 72.601856	
4.75706	 72.025894	
4.79032	 71.770136	
4.82359	 71.371659	
4.85685	 71.134015	
4.89012	 70.735419	
4.92339	 70.356764	
4.95665	 70.040672	
4.98992	 69.715039	
5.02319	 69.189502	
5.05645	 67.007218	
5.08972	 66.734256	
5.12298	 66.337100	
5.15625	 66.021937	
5.18952	 65.664762	
5.22278	 65.510341	
5.25605	 65.312054	
5.28931	 65.165242	
5.32258	 64.860695	
5.35585	 64.554770	
5.38911	 64.138184	
5.42238	 62.803635	
5.45565	 62.584291	
5.48891	 62.472094	
5.52218	 62.118030	
5.55544	 61.930427	
5.58871	 61.821319	
5.62198	 61.511951	
5.65524	 61.269111	
5.68851	 60.115581	
5.72177	 59.766714	
5.75504	 59.397859	
5.78831	 59.214603	
5.82157	 59.040295	
5.85484	 58.807468	
5.8881	 58.108687	
5.92137	 57.807026	
5.95464	 57.694838	
5.9879	 57.691522	
6.02117	 57.639212	
6.05444	 57.728604	
6.0877	 57.878394	
6.12097	 57.801489	
6.15423	 57.886555	
6.1875	 57.842516	
6.22077	 57.622969	
6.25403	 57.476954	
6.2873	 57.110106	
6.32056	 57.101460	
6.35383	 56.879040	
6.3871	 56.809716	
6.42036	 56.615699	
6.45363	 56.527050	
6.4869	 56.616748	
6.52016	 56.718305	
6.55343	 56.873487	
6.58669	 56.836680	
6.61996	 56.976648	
6.65323	 57.150586	
6.68649	 57.188461	
6.71976	 57.357883	
6.75302	 57.372921	
6.78629	 57.351704	
6.81956	 57.261677	
6.85282	 57.157301	
6.88609	 57.083863	
6.91935	 57.111709	
6.95262	 57.196834	
6.98589	 57.185268	
7.01915	 57.233815	
7.05242	 57.171609	
7.08569	 57.270236	
7.11895	 57.282579	
7.15222	 57.416886	
7.18548	 57.471404	
7.21875	 57.437389	
7.25202	 57.494597	
7.28528	 57.519330	
7.31855	 57.527465	
7.35181	 57.034635	
7.38508	 56.859831	
7.41835	 56.508693	
7.45161	 56.309136	
7.48488	 56.248223	
7.51815	 56.316282	
7.55141	 56.444372	
7.58468	 56.531837	
7.61794	 56.677869	
7.65121	 56.673323	
7.68448	 56.627463	
7.71774	 56.468614	
7.75101	 56.420508	
7.78427	 55.873825	
7.81754	 55.934083	
7.85081	 55.932854	
7.88407	 55.935933	
7.91734	 55.986994	
7.9506	 55.963345	
7.98387	 55.952940	
8.01714	 56.057114	
8.0504	 56.127667	
8.08367	 56.142614	
8.11694	 56.201459	
8.1502	 56.265376	
8.18347	 56.236030	
8.21673	 56.218874	
8.25	 56.296355	
8.28327	 56.258699	
8.31653	 56.336028	
8.3498	 56.322286	
8.38306	 56.152158	
8.41633	 56.112011	
8.4496	 56.119783	
8.48286	 56.113219	
8.51613	 56.144174	
8.5494	 56.171983	
8.58266	 56.202897	
8.61593	 56.264881	
8.64919	 56.389026	
8.68246	 56.522140	
8.71573	 56.666901	
8.74899	 56.958398	
8.78226	 57.105595	
8.81552	 57.195338	
8.84879	 57.293787	
8.88206	 58.658773	
8.91532	 58.863131	
8.94859	 61.085596	
8.98185	 61.098623	
9.01512	 62.561121	
9.04839	 67.021877	
9.08165	 70.264626	
9.11492	 75.283857	
9.14819	 75.277997	
9.18145	 75.145496	
9.21472	 75.058868	
9.24798	 75.015253	
9.28125	 75.088710	
9.31452	 75.226153	
9.34778	 75.203403	
9.38105	 75.147838	
9.41431	 75.106763	
9.44758	 75.114452	
9.48085	 75.111176	
9.51411	 75.104727	
9.54738	 74.939283	
9.58065	 74.694805	
9.61391	 74.714101	
9.64718	 74.496346	
9.68044	 74.405855	
9.71371	 74.388825	
9.74698	 74.348893	
